<?xml version="1.0" encoding="UTF-8" standalone="no"?>
<svg
   id="Layer_2"
   data-name="Layer 2"
   viewBox="0 0 163.52749 163.53"
   version="1.1"
   width="163.5275"
   height="163.53"
   xmlns="http://www.w3.org/2000/svg"
   xmlns:svg="http://www.w3.org/2000/svg">
  <defs
     id="defs2">
    <style
       id="style1">
      .cls-1 {
        fill: #323031;
      }

      .cls-1, .cls-2 {
        stroke-width: 0px;
      }

      .cls-2 {
        fill: url(#_Безымянный_градиент_29);
      }
    </style>
    <linearGradient
       id="_Безымянный_градиент_29"
       data-name="Безымянный градиент 29"
       x1="1172.3199"
       y1="-1494.54"
       x2="1172.3199"
       y2="-1619.0699"
       gradientTransform="rotate(-45,2604.9465,578.89583)"
       gradientUnits="userSpaceOnUse">
      <stop
         offset="0"
         stop-color="#1671d3"
         id="stop1" />
      <stop
         offset="1"
         stop-color="#34cbf2"
         id="stop2" />
    </linearGradient>
  </defs>
  <g
     id="_Слой_1"
     data-name="Слой 1"
     transform="translate(0.0075)">
    <path
       class="cls-2"
       d="m 159.07,71.01 c -2.89,-2.87 -6.7,-4.45 -10.74,-4.45 -2.56,0 -5.06,0.68 -7.32,1.91 L 128.33,55.79 c 3.2,-5.84 2.19,-13.3 -2.56,-18.05 -2.8,-2.83 -6.69,-4.44 -10.68,-4.44 h -0.05 c -4.07,0 -7.89,1.58 -10.75,4.44 -2.86,2.86 -4.44,6.68 -4.44,10.75 0,2.59 0.68,5.08 1.9,7.28 L 89.04,68.48 c -2.21,-1.23 -4.71,-1.91 -7.29,-1.91 -4.05,0 -7.87,1.58 -10.74,4.45 -5.93,5.93 -5.93,15.57 -0.01,21.49 2.86,2.86 6.68,4.44 10.75,4.44 4.07,0 7.88,-1.57 10.74,-4.43 4.76,-4.76 5.77,-12.22 2.56,-18.08 l 12.69,-12.69 c 2.27,1.25 4.78,1.91 7.31,1.91 2.52,0 5.02,-0.65 7.28,-1.89 l 12.71,12.71 c -2.48,4.54 -2.48,10.07 0,14.6 l -12.69,12.69 c -2.23,-1.23 -4.72,-1.9 -7.3,-1.9 -4.07,0 -7.89,1.58 -10.75,4.44 -2.86,2.86 -4.44,6.68 -4.44,10.75 0,2.59 0.68,5.09 1.91,7.29 L 89.06,135.06 C 84.6,132.6 78.9,132.6 74.47,135.05 l -12.7,-12.7 c 1.22,-2.23 1.9,-4.72 1.9,-7.3 0,-4.05 -1.58,-7.87 -4.45,-10.74 -2.88,-2.88 -6.7,-4.44 -10.73,-4.44 -2.58,0 -5.08,0.68 -7.3,1.9 L 28.47,89.05 c 2.48,-4.52 2.48,-10.06 0,-14.58 L 41.19,61.75 c 2.26,1.24 4.76,1.88 7.26,1.88 3.94,0 7.86,-1.51 10.77,-4.42 2.87,-2.87 4.45,-6.68 4.45,-10.74 0,-2.59 -0.68,-5.09 -1.91,-7.29 L 74.47,28.47 c 2.2,1.22 4.69,1.9 7.28,1.9 4.07,0 7.89,-1.58 10.77,-4.46 2.87,-2.87 4.44,-6.68 4.44,-10.73 C 96.96,11.12 95.37,7.31 92.5,4.46 89.62,1.58 85.81,0 81.75,0 77.68,0 73.86,1.58 71,4.44 66.25,9.19 65.25,16.65 68.46,22.5 l -12.7,12.7 c -2.24,-1.23 -4.73,-1.91 -7.29,-1.91 -4.08,0.01 -7.9,1.59 -10.76,4.45 -2.86,2.86 -4.43,6.67 -4.43,10.74 0,2.58 0.68,5.08 1.9,7.3 l -12.7,12.7 c -2.24,-1.23 -4.73,-1.91 -7.29,-1.91 -4.07,0 -7.89,1.58 -10.75,4.44 -5.93,5.93 -5.93,15.57 0,21.5 2.91,2.91 6.83,4.42 10.78,4.42 2.5,0 5,-0.64 7.27,-1.88 l 12.69,12.69 c -1.23,2.24 -1.91,4.74 -1.91,7.31 0,4.05 1.58,7.87 4.45,10.74 2.92,2.92 6.84,4.43 10.79,4.43 2.5,0 5,-0.65 7.26,-1.89 l 12.68,12.68 c -3.21,5.85 -2.2,13.32 2.56,18.08 2.86,2.86 6.67,4.44 10.73,4.44 4.07,0 7.89,-1.58 10.75,-4.44 4.77,-4.77 5.78,-12.23 2.57,-18.06 l 12.69,-12.69 c 2.26,1.24 4.75,1.88 7.25,1.88 3.95,0 7.88,-1.51 10.79,-4.42 4.75,-4.75 5.75,-12.21 2.55,-18.04 l 12.7,-12.7 c 2.26,1.24 4.76,1.88 7.26,1.88 3.94,0 7.86,-1.51 10.77,-4.42 2.87,-2.87 4.45,-6.68 4.45,-10.74 0,-4.09 -1.58,-7.91 -4.44,-10.75 z M 19.54,84.49 c -0.21,0.34 -0.45,0.63 -0.72,0.91 -0.26,0.26 -0.58,0.52 -0.89,0.72 -2.02,1.27 -4.7,0.96 -6.39,-0.72 -0.97,-0.97 -1.51,-2.27 -1.51,-3.65 0,-1.38 0.54,-2.68 1.51,-3.65 0.97,-0.97 2.26,-1.5 3.65,-1.5 0.97,0 1.9,0.27 2.77,0.82 0.31,0.19 0.61,0.43 0.87,0.69 0.27,0.27 0.51,0.57 0.72,0.92 1.04,1.65 1.04,3.8 -0.01,5.46 z M 78.1,11.54 v 0 c 0.97,-0.97 2.26,-1.5 3.65,-1.5 1.39,0 2.66,0.53 3.65,1.52 0.97,0.97 1.5,2.25 1.5,3.62 0,1.37 -0.54,2.66 -1.52,3.64 -0.97,0.97 -2.26,1.5 -3.65,1.5 -1,0 -1.89,-0.26 -2.73,-0.79 -0.33,-0.21 -0.63,-0.45 -0.9,-0.71 -0.27,-0.27 -0.5,-0.57 -0.72,-0.91 -1.27,-2.02 -0.97,-4.7 0.71,-6.37 z M 43.32,48.47 c 0,-1.41 0.51,-2.67 1.49,-3.64 v 0 c 0.97,-0.97 2.27,-1.51 3.66,-1.51 0.98,0 1.9,0.27 2.77,0.82 0.31,0.19 0.6,0.43 0.87,0.69 0.27,0.27 0.51,0.57 0.75,0.97 0.5,0.78 0.75,1.68 0.75,2.67 0,1.39 -0.52,2.65 -1.51,3.64 -1.68,1.68 -4.35,1.98 -6.36,0.72 l -0.16,-0.09 c -0.26,-0.15 -0.52,-0.36 -0.77,-0.61 -0.26,-0.26 -0.5,-0.57 -0.73,-0.93 -0.51,-0.81 -0.77,-1.73 -0.77,-2.72 z m 10.3,66.56 c 0,1.01 -0.26,1.91 -0.79,2.75 -0.21,0.34 -0.45,0.64 -0.71,0.9 -0.28,0.28 -0.57,0.51 -0.93,0.73 -2,1.26 -4.68,0.96 -6.37,-0.73 -0.99,-0.99 -1.51,-2.24 -1.51,-3.64 0,-0.99 0.27,-1.93 0.82,-2.79 0.17,-0.27 0.4,-0.56 0.69,-0.85 v 0 c 0.27,-0.28 0.58,-0.52 0.93,-0.74 0.83,-0.52 1.73,-0.77 2.76,-0.77 h 0.02 c 1.35,0 2.62,0.53 3.58,1.5 0.99,0.99 1.51,2.25 1.51,3.64 z m 23.72,30.61 c 0.23,-0.36 0.49,-0.69 0.76,-0.96 v 0 c 0.28,-0.28 0.58,-0.52 0.98,-0.77 0.78,-0.5 1.68,-0.75 2.67,-0.76 0.97,0 1.89,0.27 2.68,0.77 l 0.18,0.11 c 0.24,0.15 0.51,0.36 0.79,0.64 0.27,0.27 0.5,0.57 0.73,0.93 1.26,1.99 0.95,4.67 -0.74,6.36 -0.97,0.97 -2.26,1.5 -3.65,1.5 -1.39,0 -2.65,-0.52 -3.63,-1.5 -1.66,-1.66 -1.99,-4.39 -0.78,-6.33 z m 41.34,-26.96 c -1.66,1.66 -4.37,1.99 -6.3,0.78 -0.37,-0.23 -0.69,-0.5 -0.97,-0.77 -0.28,-0.28 -0.5,-0.55 -0.64,-0.79 l -0.11,-0.18 c -0.5,-0.79 -0.76,-1.68 -0.76,-2.67 0,-1.39 0.53,-2.68 1.5,-3.65 1.66,-1.66 4.39,-1.98 6.43,-0.69 0.27,0.17 0.56,0.4 0.86,0.7 0.27,0.27 0.5,0.57 0.72,0.91 1.26,2.01 0.96,4.69 -0.72,6.37 z m -8.94,-0.39 z M 85.39,85.41 c -0.97,0.97 -2.23,1.49 -3.64,1.49 -1.39,0 -2.68,-0.53 -3.65,-1.5 -2.01,-2.01 -2,-5.28 0.01,-7.29 0.99,-0.99 2.25,-1.51 3.64,-1.51 v 0 c 1,0 1.89,0.26 2.74,0.8 0.33,0.21 0.63,0.45 0.9,0.71 0.27,0.27 0.54,0.6 0.73,0.9 1.27,2.02 0.96,4.71 -0.73,6.4 z m 33.99,-34.16 c -0.2,0.31 -0.43,0.61 -0.7,0.87 -0.27,0.27 -0.57,0.51 -0.92,0.72 -1.65,1.04 -3.81,1.03 -5.5,-0.04 -0.31,-0.19 -0.6,-0.43 -0.87,-0.69 -0.27,-0.27 -0.51,-0.58 -0.76,-0.97 -0.49,-0.77 -0.74,-1.67 -0.74,-2.66 0,-1.39 0.53,-2.68 1.5,-3.65 0.97,-0.97 2.27,-1.5 3.68,-1.5 h 0.02 c 1.33,0 2.64,0.54 3.58,1.5 1.68,1.69 1.98,4.38 0.71,6.42 z m 34.09,30.51 c 0,1.37 -0.54,2.66 -1.51,3.64 -1.68,1.68 -4.37,1.97 -6.41,0.69 -0.31,-0.19 -0.61,-0.43 -0.87,-0.69 -0.27,-0.27 -0.54,-0.6 -0.73,-0.91 -1.04,-1.66 -1.03,-3.82 0.03,-5.51 0.19,-0.31 0.43,-0.61 0.7,-0.88 0.26,-0.26 0.57,-0.51 0.9,-0.72 2.01,-1.23 4.71,-0.94 6.42,0.76 0.95,0.94 1.47,2.23 1.47,3.62 z"
       id="path2"
       style="fill:url(#_%D0%91%D0%B5%D0%B7%D1%8B%D0%BC%D1%8F%D0%BD%D0%BD%D1%8B%D0%B9_%D0%B3%D1%80%D0%B0%D0%B4%D0%B8%D0%B5%D0%BD%D1%82_29)" />
  </g>
</svg>
